#!OML:ASF H:\Terrain\Patient Classification 1\Takeo\Monday\TakeoMonday.ASF
:FULLY-SPECIFIED
:DEGREES
582
root 5.47266 17.2391 2.9515 -93.9628 85.5647 -92.0352
lowerback 11.3283 -4.63499 -2.11839
upperback 6.51258 -6.03483 -5.39562
thorax 0.11884 -2.8393 -3.74925
lowerneck -3.59234 -10.2928 -10.9242
upperneck 6.16933 -13.8257 9.27819
head 3.82823 -6.80874 3.7947
rclavicle 3.97569e-015 7.95139e-014
rhumerus -34.0952 -22.0111 -15.1219
rradius 49.6755
rwrist -10.0447
rhand -46.2392 34.6251
rfingers 7.12502
rthumb -18.9758 5.5307
lclavicle 3.97569e-015 7.95139e-014
lhumerus -31.4098 3.24153 74.0828
lradius 90.1326
lwrist 30.1809
lhand -31.7078 26.802
lfingers 7.12502
lthumb -4.96656 56.7237
rfemur -13.9382 -1.92405 24.0061
rtibia 37.0262
rfoot -18.4873 -6.28028
rtoes -1.02275
lfemur -3.75742 8.97085 -2.42984
ltibia 31.8899
lfoot -20.0856 26.2812
ltoes 0.0488977
583
root 5.45788 17.2413 2.94172 -97.326 85.3519 -95.3724
lowerback 11.5369 -4.75666 -2.0869
upperback 6.38887 -6.21281 -5.54321
thorax -0.152141 -2.92589 -3.87614
lowerneck -3.31203 -10.0912 -9.83823
upperneck 6.0472 -13.6294 9.1815
head 3.64474 -6.69985 3.64248
rclavicle 1.66979e-014 -2.22639e-014
rhumerus -34.0833 -21.1968 -17.4
rradius 50.5622
rwrist -9.91283
rhand -46.4636 34.6662
rfingers 7.12502
rthumb -19.1916 5.59313
lclavicle 1.66979e-014 -2.22639e-014
lhumerus -31.4713 2.23315 74.0821
lradius 89.9856
lwrist 30.3858
lhand -31.9676 26.726
lfingers 7.12502
lthumb -5.21741 56.6417
rfemur -13.79 -1.86673 24.1694
rtibia 36.7515
rfoot -18.5365 -6.3549
rtoes 0.0472281
lfemur -3.99297 9.02932 -2.21194
ltibia 32.0616
lfoot -19.7375 26.1765
ltoes -0.952348
584
root 5.44425 17.2497 2.92723 -100.049 85.3554 -98.1019
lowerback 11.6592 -4.74226 -2.21888
upperback 6.30091 -6.21842 -5.55113
thorax -0.297164 -2.93142 -3.79651
lowerneck -3.29002 -10.0686 -9.07877
upperneck 5.94743 -13.6007 8.73733
head 3.52526 -6.68533 3.40615
rclavicle -3.97569e-015 -5.40694e-014
rhumerus -34.2458 -20.6686 -19.225
rradius 51.5845
rwrist -9.63075
rhand -47.0565 35.3347
rfingers 7.12502
rthumb -19.7616 6.31928
lclavicle -3.97569e-015 -5.40694e-014
lhumerus -31.127 1.40377 74.777
lradius 89.4729
lwrist 30.3421
lhand -31.9283 26.3687
lfingers 7.12502
lthumb -5.17952 56.2854
rfemur -13.7064 -1.89945 24.1045
rtibia 36.4914
rfoot -18.3406 -6.47038
rtoes -0.154712
lfemur -4.20046 8.98692 -2.30375
ltibia 32.1986
lfoot -19.717 26.0767
ltoes -1.0089
585
root 5.42866 17.2585 2.91092 -102.515 85.0347 -100.822
lowerback 11.4465 -4.63774 -1.91155
upperback 6.18269 -6.06166 -5.2701
thorax -0.301339 -2.85892 -3.70231
lowerneck -3.25801 -10.1688 -9.38875
upperneck 5.81874 -13.7182 8.80315
head 3.5176 -6.74965 3.46626
rclavicle 2.38542e-015 -2.22639e-014
rhumerus -34.4879 -20.1661 -20.4617
rradius 52.603
rwrist -9.54632
rhand -47.5417 36.451
rfingers 7.12502
rthumb -20.228 7.48423
lclavicle 2.38542e-015 -2.22639e-014
lhumerus -30.5605 0.316001 76.0212
lradius 88.795
lwrist 29.9914
lhand -31.0156 26.4275
lfingers 7.12502
lthumb -4.29817 56.3639
rfemur -13.9356 -2.04372 24.3842
rtibia 36.3052
rfoot -17.9885 -6.59919
rtoes -0.242472
lfemur -4.64375 9.02298 -2.07891
ltibia 32.1986
lfoot -19.6264 25.8763
ltoes -1.03338
586
root 5.41686 17.2628 2.88727 -105.458 84.7758 -103.658
lowerback 11.4866 -4.55865 -1.63368
upperback 6.18873 -5.93368 -5.13085
thorax -0.324437 -2.79275 -3.72367
lowerneck -3.28895 -10.1683 -9.84061
upperneck 5.83846 -13.7331 9.30854
head 3.59724 -6.74876 3.67824
rclavicle -2.14687e-014 2.8625e-014
rhumerus -34.8135 -19.4912 -21.8374
rradius 53.7351
rwrist -9.6996
rhand -46.7018 35.7574
rfingers 7.12502
rthumb -19.4206 6.70725
lclavicle -2.14687e-014 2.8625e-014
lhumerus -30.2029 -1.16498 76.9929
lradius 88.5178
lwrist 30.1161
lhand -31.8014 26.7048
lfingers 7.12502
lthumb -5.05701 56.6245
rfemur -13.7564 -2.24528 24.4942
rtibia 36.1468
rfoot -17.8577 -6.64313
rtoes 0.330811
lfemur -4.63795 8.96903 -1.92185
ltibia 32.1205
lfoot -19.4543 25.6724
ltoes -1.27726
587
root 5.40758 17.2675 2.86355 -108.181 84.9074 -106.497
lowerback 11.2867 -4.45292 -1.8249
upperback 6.10052 -5.81266 -5.06081
thorax -0.275652 -2.73965 -3.56998
lowerneck -3.4174 -10.1214 -10.0221
upperneck 5.96183 -13.662 9.38477
head 3.66648 -6.7101 3.72342
rclavicle -6.12257e-014 -7.95139e-014
rhumerus -35.0884 -18.6975 -23.345
rradius 54.8976
rwrist -9.74997
rhand -45.8515 34.281
rfingers 7.12502
rthumb -18.6029 5.15054
lclavicle -6.12257e-014 -7.95139e-014
lhumerus -30.025 -2.44434 77.9592
lradius 88.2977
lwrist 30.244
lhand -34.0363 26.0332
lfingers 7.12502
lthumb -7.21462 55.8902
rfemur -13.8021 -2.36053 24.1877
rtibia 35.9418
rfoot -17.7816 -6.81162
rtoes -0.0680468
lfemur -4.83068 9.16789 -2.20111
ltibia 32.0745
lfoot -19.324 25.3197
ltoes -1.0561
588
root 5.39609 17.2739 2.83992 -112.143 85.1071 -110.381
lowerback 11.3644 -4.33634 -2.17902
upperback 6.04212 -5.69612 -4.98919
thorax -0.330388 -2.68839 -3.30509
lowerneck -3.47834 -10.1488 -10.1378
upperneck 6.0299 -13.6824 9.29303
head 3.7003 -6.72337 3.70647
rclavicle 7.63333e-014 3.81667e-014
rhumerus -35.2623 -18.0376 -24.8858
rradius 55.8571
rwrist -9.70302
rhand -45.9086 34.3926
rfingers 7.12502
rthumb -18.6577 5.26736
lclavicle 7.63333e-014 3.81667e-014
lhumerus -29.7913 -3.58692 78.9918
lradius 87.8575
lwrist 30.0669
lhand -34.0959 26.1063
lfingers 7.12502
lthumb -7.27213 55.9613
rfemur -13.5809 -2.42223 23.7597
rtibia 35.6493
rfoot -17.7532 -7.16384
rtoes -1.2151
lfemur -4.87009 9.2476 -2.57344
ltibia 32.0708
lfoot -19.2349 25.0407
ltoes -0.905026
589
root 5.37993 17.2801 2.81838 -115.431 84.6441 -113.254
lowerback 11.8024 -4.33354 -1.8369
upperback 6.17345 -5.66193 -4.86387
thorax -0.44946 -2.66208 -3.34317
lowerneck -3.51368 -10.1497 -9.94
upperneck 5.83884 -13.6878 9.3704
head 3.64104 -6.71948 3.70276
rclavicle -6.40087e-014 -1.90833e-014
rhumerus -35.334 -17.6878 -26.6657
rradius 56.6329
rwrist -9.64152
rhand -45.485 34.4279
rfingers 7.12502
rthumb -18.2503 5.26409
lclavicle -6.40087e-014 -1.90833e-014
lhumerus -29.3559 -4.76287 79.7772
lradius 87.4672
lwrist 29.96
lhand -32.5541 27.3119
lfingers 7.12502
lthumb -5.78371 57.2129
rfemur -12.9664 -2.54173 24.0041
rtibia 35.3257
rfoot -17.7729 -7.50925
rtoes -1.00352
lfemur -4.66648 9.08792 -2.19382
ltibia 32.1053
lfoot -19.0316 24.7816
ltoes -1.33624
590
root 5.37255 17.292 2.79694 -115.167 83.9674 -113.105
lowerback 11.5439 -4.40116 -1.14458
upperback 6.22134 -5.68043 -4.66506
thorax -0.309641 -2.66562 -3.53797
lowerneck -3.89165 -10.0095 -9.65083
upperneck 5.84802 -13.4906 9.42423
head 3.67106 -6.60287 3.67265
rclavicle 4.41302e-014 -1.90833e-014
rhumerus -34.8479 -16.9944 -28.7365
rradius 57.1553
rwrist -9.66391
rhand -45.0029 33.7508
rfingers 7.12502
rthumb -17.7865 4.54419
lclavicle 4.41302e-014 -1.90833e-014
lhumerus -28.8614 -5.63582 80.4076
lradius 87.0684
lwrist 29.7045
lhand -32.3636 27.6905
lfingers 7.12502
lthumb -5.59978 57.5965
rfemur -12.9266 -2.52938 24.5888
rtibia 35.0257
rfoot -17.8248 -7.47526
rtoes 0.915689
lfemur -4.96191 9.22937 -1.54453
ltibia 32.179
lfoot -18.8868 24.3076
ltoes -0.951633
